<svg width="852" height="598" viewBox="0 0 852 598" fill="none" xmlns="http://www.w3.org/2000/svg">
<path fill-rule="evenodd" clip-rule="evenodd" d="M944.12 270.902L800.152 241.649V256.008C800.152 270.92 812.24 283.008 827.152 283.008H921.595C931.002 283.008 939.286 278.197 944.12 270.902ZM947.266 271.541C942.008 280.213 932.478 286.008 921.595 286.008H827.152C810.583 286.008 797.152 272.577 797.152 256.008V241.039L383.575 157.006V173.086C383.575 189.654 370.144 203.086 353.575 203.086H259.132C242.563 203.086 229.132 189.654 229.132 173.086V125.625L-10.769 76.8796L-29.9636 171.347L33.2272 184.186V148.09C33.2272 131.521 46.6586 118.09 63.2272 118.09H157.671C174.239 118.09 187.671 131.521 187.671 148.09V215.567L611.613 301.707V267.291C611.613 250.723 625.044 237.291 641.613 237.291H736.056C752.624 237.291 766.056 250.723 766.056 267.291V333.088L944.805 369.408L964 274.941L947.266 271.541ZM380.575 156.396L232.132 126.234V173.086C232.132 187.997 244.22 200.086 259.132 200.086H353.575C368.487 200.086 380.575 187.997 380.575 173.086V156.396ZM614.613 302.317L763.056 332.479V267.291C763.056 252.38 750.968 240.291 736.056 240.291H641.613C626.701 240.291 614.613 252.379 614.613 267.291V302.317ZM184.671 148.09V214.958L36.2272 184.796V148.09C36.2272 133.178 48.3155 121.09 63.2272 121.09H157.671C172.582 121.09 184.671 133.178 184.671 148.09Z" fill="#100E0D"/>
<path fill-rule="evenodd" clip-rule="evenodd" d="M-26.8917 521.985L69.5058 505.226V583.412L-13.6979 597.877L-26.8917 521.985ZM72.6154 582.871V504.685L94.3826 500.901V576.72L91.5858 579.573L72.6154 582.871ZM97.4922 577.989V578.546L119.259 574.762V555.781L97.4922 577.989ZM122.369 552.608V574.221L899.292 439.154L886.098 363.262L189.207 484.416L122.369 552.608ZM183.958 485.329L122.369 548.166V496.036L183.958 485.329ZM119.259 551.339L97.4922 573.547V500.361L119.259 496.576V551.339Z" fill="#B60B0B"/>
<path fill-rule="evenodd" clip-rule="evenodd" d="M780.913 140.383C801.9 126.934 815.809 103.406 815.809 76.6286C815.809 49.8513 801.9 26.3228 780.913 12.8737C758.403 25.221 743.143 49.1426 743.143 76.6285C743.143 104.114 758.403 128.036 780.913 140.383ZM777.976 142.173C755.359 129.089 740.143 104.636 740.143 76.6285C740.143 48.6211 755.359 24.1677 777.976 11.0845C766.846 4.64643 753.925 0.96167 740.142 0.96167C698.353 0.96167 664.476 34.8389 664.476 76.6286C664.476 118.418 698.353 152.295 740.142 152.295C753.925 152.295 766.846 148.611 777.976 142.173Z" fill="#B60B0B"/>
</svg>
