<svg width="14" height="14" viewBox="0 0 14 14" fill="none" xmlns="http://www.w3.org/2000/svg">
<path d="M7 0.5C5.71443 0.5 4.45772 0.881218 3.3888 1.59545C2.31988 2.30968 1.48676 3.32484 0.994786 4.51256C0.502816 5.70028 0.374095 7.00721 0.624899 8.26809C0.875703 9.52896 1.49477 10.6872 2.40381 11.5962C3.31285 12.5052 4.47104 13.1243 5.73192 13.3751C6.99279 13.6259 8.29973 13.4972 9.48745 13.0052C10.6752 12.5132 11.6903 11.6801 12.4046 10.6112C13.1188 9.54229 13.5 8.28558 13.5 7C13.498 5.2767 12.8126 3.62456 11.594 2.406C10.3754 1.18744 8.7233 0.501985 7 0.5ZM12.5 7C12.5004 7.50723 12.4304 8.01205 12.2919 8.5H9.885C10.0383 7.50588 10.0383 6.49412 9.885 5.5H12.2919C12.4304 5.98795 12.5004 6.49277 12.5 7ZM5.375 9.5H8.625C8.30482 10.5491 7.74899 11.5111 7 12.3125C6.2513 11.5109 5.69551 10.549 5.375 9.5ZM5.13125 8.5C4.95959 7.50737 4.95959 6.49263 5.13125 5.5H8.87375C9.04541 6.49263 9.04541 7.50737 8.87375 8.5H5.13125ZM1.5 7C1.49957 6.49277 1.56961 5.98795 1.70813 5.5H4.115C3.96167 6.49412 3.96167 7.50588 4.115 8.5H1.70813C1.56961 8.01205 1.49957 7.50723 1.5 7ZM8.625 4.5H5.375C5.69518 3.45088 6.25102 2.48886 7 1.6875C7.74871 2.48908 8.3045 3.45102 8.625 4.5ZM11.8956 4.5H9.66938C9.38879 3.47057 8.91588 2.50355 8.27563 1.65C9.0492 1.83583 9.77344 2.18674 10.3987 2.67866C11.024 3.17058 11.5355 3.7919 11.8981 4.5H11.8956ZM5.72438 1.65C5.08413 2.50355 4.61122 3.47057 4.33063 4.5H2.10188C2.46455 3.7919 2.97605 3.17058 3.60131 2.67866C4.22657 2.18674 4.95081 1.83583 5.72438 1.65ZM2.10188 9.5H4.33063C4.61122 10.5294 5.08413 11.4965 5.72438 12.35C4.95081 12.1642 4.22657 11.8133 3.60131 11.3213C2.97605 10.8294 2.46455 10.2081 2.10188 9.5ZM8.27563 12.35C8.91588 11.4965 9.38879 10.5294 9.66938 9.5H11.8981C11.5355 10.2081 11.024 10.8294 10.3987 11.3213C9.77344 11.8133 9.0492 12.1642 8.27563 12.35Z" fill="#ECE9E9"/>
</svg>
